# Made in Blockbench 5.1.4
mtllib chainlink_fence_broken.mtl

o plane
v 0 0.0625000000000001 0.4375
v 0 0.7500000000000001 0.43749999999999983
v 0 0.0624999999999999 -0.4375
v 0 0.7499999999999999 -0.43750000000000017
vt 1 0
vt 1 1
vt 0 1
vt 0 0
vn -1 0 0
usemtl m_1c90df46-efa2-af9b-5402-12e6c2b93e2c
f 1/1/1 2/2/1 4/3/1 3/4/1
o mesh
v 0.03125 0.8125 0.5
v 0.03125 0.8125 0.4375
v 0.03125 0 0.5
v 0.03125 0 0.4375
v -0.03125 0.8125 0.5
v -0.03125 0.8125 0.4375
v -0.03125 0 0.5
v -0.03125 0 0.4375
vt 0.5470085470085471 0.006166009362200131
vt 0.47806281274281276 0.006166009362200131
vt 0.47806281274281276 1
vt 0.5470085470085471 1
vt 0.3428095726495726 1
vt 0.3428095726495726 0.0032556992393213413
vt 0.2754467754467754 0.0032556992393213413
vt 0.2754467754467754 1
vt 0.8073038073038074 0.15915740198946748
vt 0.9094794094794095 0.15915740198946748
vt 0.9094794094794095 0.005011111761264009
vt 0.8073038073038074 0.005011111761264009
vt 0.47841457653457653 1
vt 0.47841457653457653 0.006166009362200131
vt 0.4101723698523699 0.006166009362200131
vt 0.4101723698523699 1
vt 0.41034825174825174 0.0032556992393213413
vt 0.34298545454545454 0.0032556992393213413
vt 0.34298545454545454 1
vt 0.41034825174825174 1
vn 1 0 0
vn -1 0 0
vn 0 1 0
vn 0 0 1
vn 0 0 -1
usemtl m_b8b2a461-d460-7cf2-1783-4e88977dada1
f 6/5/2 5/6/2 7/7/2 8/8/2
f 11/9/3 9/10/3 10/11/3 12/12/3
f 9/13/4 5/14/4 6/15/4 10/16/4
f 7/17/5 5/18/5 9/19/5 11/20/5
f 10/21/6 6/22/6 8/23/6 12/24/6
o mesh
v 0.03125 0.8125 -0.4375
v 0.03125 0.8125 -0.5
v 0.03125 0 -0.4375
v 0.03125 0 -0.5
v -0.03125 0.8125 -0.4375
v -0.03125 0.8125 -0.5
v -0.03125 0 -0.4375
v -0.03125 0 -0.5
vt 0.5470085470085471 0.006166009362200131
vt 0.47806281274281276 0.006166009362200131
vt 0.47806281274281276 1
vt 0.5470085470085471 1
vt 0.3428095726495726 1
vt 0.3428095726495726 0.0032556992393213413
vt 0.2754467754467754 0.0032556992393213413
vt 0.2754467754467754 1
vt 0.8073038073038074 0.15915740198946748
vt 0.9094794094794095 0.15915740198946748
vt 0.9094794094794095 0.005011111761264009
vt 0.8073038073038074 0.005011111761264009
vt 0.47841457653457653 1
vt 0.47841457653457653 0.006166009362200131
vt 0.4101723698523699 0.006166009362200131
vt 0.4101723698523699 1
vt 0.41034825174825174 0.0032556992393213413
vt 0.34298545454545454 0.0032556992393213413
vt 0.34298545454545454 1
vt 0.41034825174825174 1
vn 1 0 0
vn -1 0 0
vn 0 1 0
vn 0 0 1
vn 0 0 -1
usemtl m_b8b2a461-d460-7cf2-1783-4e88977dada1
f 14/25/7 13/26/7 15/27/7 16/28/7
f 19/29/8 17/30/8 18/31/8 20/32/8
f 17/33/9 13/34/9 14/35/9 18/36/9
f 15/37/10 13/38/10 17/39/10 19/40/10
f 18/41/11 14/42/11 16/43/11 20/44/11