# Made in Blockbench 5.1.4
mtllib coffin_grave.mtl

o grave
v 0.71875 0.125 0.34375
v 0.71875 0.125 -0.34375
v 0.71875 0 0.34375
v 0.71875 0 -0.34375
v -0.71875 0.125 0.34375
v -0.71875 0.125 -0.34375
v -0.71875 0 0.34375
v -0.71875 0 -0.34375
vt 0.546875 0.953125
vt 0.375 0.953125
vt 0.375 0.921875
vt 0.546875 0.921875
vt 0.546875 0.875
vt 0.546875 0.90625
vt 0.375 0.90625
vt 0.375 0.875
vt 0 0.828125
vt 0.359375 0.828125
vt 0.359375 1
vt 0 1
vt 0.359375 0.640625
vt 0.359375 0.8125
vt 0 0.8125
vt 0 0.640625
vt 0.359375 0.59375
vt 0.359375 0.625
vt 0 0.625
vt 0 0.59375
vt 0.734375 1
vt 0.375 1
vt 0.375 0.96875
vt 0.734375 0.96875
vn 1 0 0
vn -1 0 0
vn 0 1 0
vn 0 -1 0
vn 0 0 1
vn 0 0 -1
usemtl m_cdde0200-2f70-ade0-991f-aa84538ad984
f 2/1/1 1/2/1 3/3/1 4/4/1
f 7/5/2 5/6/2 6/7/2 8/8/2
f 5/9/3 1/10/3 2/11/3 6/12/3
f 4/13/4 3/14/4 7/15/4 8/16/4
f 3/17/5 1/18/5 5/19/5 7/20/5
f 6/21/6 2/22/6 4/23/6 8/24/6