# Made in Blockbench 5.1.4
mtllib grass.mtl

o plane
v 0.5 2.220446049250313e-16 -6.938893903907228e-17
v 0.5 0.4999999999999998 6.938893903907228e-17
v -0.5 2.220446049250313e-16 -6.938893903907228e-17
v -0.5 0.4999999999999998 6.938893903907228e-17
vt 0.9733333333333334 0.0034364261168384758
vt 0.9733333333333334 0.993127147766323
vt 0.0419047619047619 0.993127147766323
vt 0.0419047619047619 0.0034364261168384758
vn 0 -2.775557561562894e-16 1
usemtl m_ecd3d561-e15b-e322-4cc8-24a0f37aa8d6
f 1/1/1 2/2/1 4/3/1 3/4/1
o plane
v 4.163336342344337e-17 2.220446049250313e-16 -0.5
v 1.8041124150158794e-16 0.4999999999999998 -0.5
v -1.8041124150158794e-16 2.220446049250313e-16 0.5
v -4.163336342344337e-17 0.4999999999999998 0.5
vt 0.9733333333333334 0.0034364261168384758
vt 0.9733333333333334 0.993127147766323
vt 0.0419047619047619 0.993127147766323
vt 0.0419047619047619 0.0034364261168384758
vn 1 -2.775557561562894e-16 2.220446049250313e-16
usemtl m_ecd3d561-e15b-e322-4cc8-24a0f37aa8d6
f 5/5/2 6/6/2 8/7/2 7/8/2