# Made in Blockbench 5.1.4
mtllib grave_fence.mtl

o mesh
v 0.09375 0.3125 0.5
v 0.09375 0.3125 -0.5
v 0.09375 0 0.5
v 0.09375 0 -0.5
v -0.09375 0.3125 0.5
v -0.09375 0.3125 -0.5
v -0.09375 0 0.5
v -0.09375 0 -0.5
vt 0.5 1
vt 0 1
vt 0 0.84375
vt 0.5 0.84375
vt 0.5 0.65625
vt 0.5 0.8125
vt 0 0.8125
vt 0 0.65625
vt 0 0.125
vt 0.09375 0.125
vt 0.09375 0.625
vt 0 0.625
vt 0.21875 0.125
vt 0.21875 0.625
vt 0.125 0.625
vt 0.125 0.125
vt 0.34375 0.46875
vt 0.34375 0.625
vt 0.25 0.625
vt 0.25 0.46875
vt 0.46875 0.625
vt 0.375 0.625
vt 0.375 0.46875
vt 0.46875 0.46875
vn 1 0 0
vn -1 0 0
vn 0 1 0
vn 0 -1 0
vn 0 0 1
vn 0 0 -1
usemtl m_9b57d95c-6459-4ff2-1915-5c2e96978a08
f 2/1/1 1/2/1 3/3/1 4/4/1
f 7/5/2 5/6/2 6/7/2 8/8/2
f 5/9/3 1/10/3 2/11/3 6/12/3
f 4/13/4 3/14/4 7/15/4 8/16/4
f 3/17/5 1/18/5 5/19/5 7/20/5
f 6/21/6 2/22/6 4/23/6 8/24/6
o plane
v 1.1102230246251565e-16 0.3125000000000001 0.5000000000000001
v 1.1102230246251565e-16 0.9375000000000001 0.49999999999999994
v -1.1102230246251565e-16 0.3124999999999999 -0.49999999999999994
v -1.1102230246251565e-16 0.9374999999999999 -0.5000000000000001
vt 1 0
vt 1 1
vt 0 1
vt 0 0
vn -1 4.930380657631324e-32 2.220446049250313e-16
usemtl m_650ca618-50a8-7cd1-30eb-c459202189d9
f 9/25/7 10/26/7 12/27/7 11/28/7