# Made in Blockbench 5.1.4
mtllib grave_cross_circle.mtl

o base
v 0.3375 0.375 0.39375
v 0.3375 0.375 -0.39375
v 0.375 0 0.4375
v 0.375 0 -0.4375
v -0.3375 0.375 0.39375
v -0.3375 0.375 -0.39375
v -0.375 0 0.4375
v -0.375 0 -0.4375
vt 0.625 0.78125
vt 0.34375 0.78125
vt 0.328125 0.6875
vt 0.640625 0.6875
vt 0.609375 0.578125
vt 0.59375 0.671875
vt 0.3125 0.671875
vt 0.296875 0.578125
vt 0 0.390625
vt 0.28125 0.390625
vt 0.28125 0.671875
vt 0 0.671875
vt 0.3125 0.6875
vt 0.3125 1
vt 0 1
vt 0 0.6875
vt 0.640625 0.90625
vt 0.625 1
vt 0.34375 1
vt 0.328125 0.90625
vt 0.625 0.890625
vt 0.34375 0.890625
vt 0.328125 0.796875
vt 0.640625 0.796875
vn 0.9950371902099893 0.09950371902099887 0
vn -0.9950371902099893 0.09950371902099887 0
vn 0 1 0
vn 0 -1 0
vn 0 0.11588069956017838 0.9932631390872431
vn 0 0.11588069956017838 -0.9932631390872431
usemtl m_8def0e82-2fa2-f5b9-6bfb-2c5b1f6ee7c7
f 2/1/1 1/2/1 3/3/1 4/4/1
f 7/5/2 5/6/2 6/7/2 8/8/2
f 5/9/3 1/10/3 2/11/3 6/12/3
f 4/13/4 3/14/4 7/15/4 8/16/4
f 3/17/5 1/18/5 5/19/5 7/20/5
f 6/21/6 2/22/6 4/23/6 8/24/6
o cross
v 0.125 2.125 0.208333125
v 0.125 2.125 -0.208333125
v 0.125 0.375 0.208333125
v 0.125 0.375 -0.208333125
v -0.125 2.125 0.208333125
v -0.125 2.125 -0.208333125
v -0.125 0.375 0.208333125
v -0.125 0.375 -0.208333125
v 0.125 1.75 0.625
v -0.125 1.75 0.625
v -0.125 1.75 -0.625
v 0.125 1.75 -0.625
v 0.125 1.375 0.625
v -0.125 1.375 0.625
v -0.125 1.375 -0.625
v 0.125 1.375 -0.625
v 0.125 1.75 0.208333125
v 0.125 1.75 -0.208333125
v -0.125 1.75 -0.208333125
v -0.125 1.75 0.208333125
v 0.125 1.375 -0.208333125
v 0.125 1.375 0.208333125
v -0.125 1.375 0.208333125
v -0.125 1.375 -0.208333125
vt 0 1
vt 0 0.7916671875
vt 0 0.8958328125
vt 0 0.6875
vt 0 0.7916671875
vt 0 1
vt 0.40625 0.890625
vt 0.46875 0.890625
vt 0.46875 1
vt 0.40625 1
vt 0.46875 0.765625
vt 0.46875 0.875
vt 0.40625 0.875
vt 0.40625 0.765625
vt 0.515625 0.640625
vt 0.515625 0.75
vt 0.453125 0.75
vt 0.453125 0.640625
vt 0.453125 0.625
vt 0.453125 0.515625
vt 0.515625 0.515625
vt 0.515625 0.625
vt 0.078125 0.515625
vt 0.078125 0.421875
vt 0.140625 0.421875
vt 0.140625 0.515625
vt 0 1
vt 0 0.90625
vt 0.3125 0.90625
vt 0.3125 1
vt 0.484375 0.875
vt 0.484375 0.78125
vt 0.546875 0.78125
vt 0.546875 0.875
vt 0 0.890625
vt 0 0.796875
vt 0.3125 0.796875
vt 0.3125 0.890625
vt 0 0.515625
vt 0 0.40625
vt 0.0625 0.40625
vt 0.0625 0.515625
vt 0 1
vt 0 0.7916671875
vt 0 0.8958328125
vt 0.546875 0.890625
vt 0.546875 1
vt 0.484375 1
vt 0.484375 0.890625
vt 0 0.6875
vt 0 0.7916671875
vt 0 1
vt 0.328125 0.734375
vt 0.328125 0.640625
vt 0.4375 0.640625
vt 0.4375 0.734375
vt 0.15625 0.515625
vt 0.15625 0.421875
vt 0.21875 0.421875
vt 0.21875 0.515625
vt 0.328125 0.625
vt 0.328125 0.53125
vt 0.4375 0.53125
vt 0.4375 0.625
vt 0.234375 0.515625
vt 0.234375 0.421875
vt 0.296875 0.421875
vt 0.296875 0.515625
vt 0 1
vt 0 0.7916671875
vt 0 0.6875
vt 0 0.8958328125
vt 0 0.7916671875
vt 0 1
vt 0.109375 0.53125
vt 0.109375 0.78125
vt 0 0.78125
vt 0 0.53125
vt 0.3125 0.53125
vt 0.3125 0.78125
vt 0.25 0.78125
vt 0.25 0.53125
vt 0.234375 0.53125
vt 0.234375 0.78125
vt 0.125 0.78125
vt 0.125 0.53125
vt 0.390625 0.75
vt 0.390625 1
vt 0.328125 1
vt 0.328125 0.75
vt 0 1
vt 0 0.7916671875
vt 0 0.6875
vt 0 0.8958328125
vt 0 0.7916671875
vt 0 1
vn 0 0 0
vn 0 0 0
vn 0 1 0
vn 0 -1 0
vn 0 1 0
vn 0 1 0
vn 0 0 1
vn -1 0 0
vn 0 0 -1
vn 1 0 0
vn 0 -1 0
vn 0 0 0
vn 0 -1 0
vn 0 0 0
vn 1 0 0
vn 0 0 -1
vn -1 0 0
vn 0 0 1
vn 0 0 0
vn 0 0 0
vn 1 0 0
vn 0 0 1
vn -1 0 0
vn 0 0 -1
vn 0 0 0
vn 0 0 0
usemtl m_8799bbd0-c236-5a5f-4ebf-985ef8a87301
f 20/25/7 25/26/7 26/27/7
f 18/28/8 28/29/8 19/30/8
f 13/31/9 9/32/9 10/33/9 14/34/9
f 12/35/10 11/36/10 15/37/10 16/38/10
f 17/39/11 25/40/11 28/41/11 18/42/11
f 19/43/12 27/44/12 26/45/12 20/46/12
f 18/47/13 22/48/13 21/49/13 17/50/13
f 19/51/14 23/52/14 22/53/14 18/54/14
f 20/55/15 24/56/15 23/57/15 19/58/15
f 17/59/16 21/60/16 24/61/16 20/62/16
f 22/63/17 31/64/17 30/65/17 21/66/17
f 23/67/18 31/68/18 32/69/18
f 24/70/19 29/71/19 32/72/19 23/73/19
f 21/74/20 30/75/20 24/76/20
f 9/77/21 25/78/21 26/79/21 10/80/21
f 10/81/22 26/82/22 27/83/22 14/84/22
f 14/85/23 27/86/23 28/87/23 13/88/23
f 13/89/24 28/90/24 25/91/24 9/92/24
f 20/93/25 25/94/25 17/95/25
f 27/96/26 28/97/26 19/98/26
f 12/99/27 29/100/27 30/101/27 11/102/27
f 11/103/28 30/104/28 31/105/28 15/106/28
f 15/107/29 31/108/29 32/109/29 16/110/29
f 16/111/30 32/112/30 29/113/30 12/114/30
f 23/115/31 31/116/31 22/117/31
f 29/118/32 30/119/32 24/120/32
o circle
v 0.06250000000000006 1.814383125 0.46875
v -0.062499999999999944 1.814383125 0.46875
v 0.06250000000000006 1.7840812499999998 0.416265625
v -0.062499999999999944 1.78408125 0.416265625
v 0.06250000000000012 2.085015625 0
v -0.06249999999999989 2.085015625 0
v 0.06250000000000011 2.0244125 0
v -0.06249999999999989 2.0244125 0
v 0.06250000000000006 1.814383125 -0.46875
v -0.062499999999999944 1.814383125 -0.46875
v 0.06250000000000006 1.7840812499999998 -0.416265625
v -0.062499999999999944 1.78408125 -0.416265625
v 0.06249999999999994 1.273116875 -0.46875
v -0.06250000000000006 1.273116875 -0.46875
v 0.062499999999999944 1.30341875 -0.416265625
v -0.06250000000000006 1.30341875 -0.416265625
v 0.06249999999999988 1.0024843749999999 0
v -0.06250000000000011 1.0024843749999999 0
v 0.062499999999999896 1.0630875 0
v -0.06250000000000011 1.0630875 0
v 0.06249999999999994 1.273116875 0.46875
v -0.06250000000000006 1.273116875 0.46875
v 0.062499999999999944 1.30341875 0.416265625
v -0.06250000000000006 1.30341875 0.416265625
vt 0.5625 0.625
vt 0.84375 0.625
vt 0.84375 0.6875
vt 0.5625 0.6875
vt 0.25 0.3125
vt 0 0.3125
vt 0 0.25
vt 0.25 0.25
vt 0.401415625 0.973759375
vt 0.52158125 0.765625
vt 0.551884375 0.765625
vt 0.416565625 1
vt 0.822815625 0.125
vt 0.958134375 0.359375
vt 0.92783125 0.359375
vt 0.807665625 0.15124062500000002
vt 0.5625 0.84375
vt 0.84375 0.84375
vt 0.84375 0.90625
vt 0.5625 0.90625
vt 0.78125 0.375
vt 0.53125 0.375
vt 0.53125 0.3125
vt 0.78125 0.3125
vt 0.52158125 0.765625
vt 0.401415625 0.557490625
vt 0.416565625 0.53125
vt 0.551884375 0.765625
vt 0.958134375 0.359375
vt 0.822815625 0.59375
vt 0.807665625 0.567509375
vt 0.92783125 0.359375
vt 0.125 0.75
vt 0.40625 0.75
vt 0.40625 0.8125
vt 0.125 0.8125
vt 0.40625 0.71875
vt 0.15625 0.71875
vt 0.15625 0.65625
vt 0.40625 0.65625
vt 0.401415625 0.557490625
vt 0.161084375 0.557490625
vt 0.145934375 0.53125
vt 0.416565625 0.53125
vt 0.822815625 0.59375
vt 0.552184375 0.59375
vt 0.567334375 0.567509375
vt 0.807665625 0.567509375
vt 0 0.34375
vt 0.28125 0.34375
vt 0.28125 0.40625
vt 0 0.40625
vt 0.25 0.21875
vt 0 0.21875
vt 0 0.15625
vt 0.25 0.15625
vt 0.161084375 0.557490625
vt 0.04091875 0.765625
vt 0.010615625 0.765625
vt 0.145934375 0.53125
vt 0.552184375 0.59375
vt 0.416865625 0.359375
vt 0.44716875 0.359375
vt 0.567334375 0.567509375
vt 0.53125 0.9375
vt 0.8125 0.9375
vt 0.8125 1
vt 0.53125 1
vt 0.84375 0.8125
vt 0.59375 0.8125
vt 0.59375 0.75
vt 0.84375 0.75
vt 0.04091875 0.765625
vt 0.161084375 0.973759375
vt 0.145934375 1
vt 0.010615625 0.765625
vt 0.416865625 0.359375
vt 0.552184375 0.125
vt 0.567334375 0.15124062500000002
vt 0.44716875 0.359375
vt 0 0.4375
vt 0.28125 0.4375
vt 0.28125 0.5
vt 0 0.5
vt 0.8125 0.46875
vt 0.5625 0.46875
vt 0.5625 0.40625
vt 0.8125 0.40625
vt 0.161084375 0.973759375
vt 0.401415625 0.973759375
vt 0.416565625 1
vt 0.145934375 1
vt 0.552184375 0.125
vt 0.822815625 0.125
vt 0.807665625 0.15124062500000002
vt 0.567334375 0.15124062500000002
vn 1.9229634656403091e-16 0.8660257547304774 0.49999939214313793
vn -1.9229623276212011e-16 -0.8660252422122343 -0.5000002798511625
vn 1 -2.220446049250313e-16 0
vn -1 2.220446049250313e-16 0
vn 1.9229634656403091e-16 0.8660257547304774 -0.49999939214313793
vn -1.9229623276212011e-16 -0.8660252422122343 0.5000002798511625
vn 1 -2.220446049250313e-16 0
vn -1 2.220446049250313e-16 0
vn 0 0 -1
vn 0 0 1
vn 1 -2.220446049250313e-16 0
vn -1 2.220446049250313e-16 0
vn -1.9229634656403091e-16 -0.8660257547304774 -0.49999939214313793
vn 1.9229623276212011e-16 0.8660252422122343 0.5000002798511625
vn 1 -2.220446049250313e-16 0
vn -1 2.220446049250313e-16 0
vn -1.9229634656403091e-16 -0.8660257547304774 0.49999939214313793
vn 1.9229623276212011e-16 0.8660252422122343 -0.5000002798511625
vn 1 -2.220446049250313e-16 0
vn -1 2.220446049250313e-16 0
vn 0 0 1
vn 0 0 -1
vn 1 -2.220446049250313e-16 0
vn -1 2.220446049250313e-16 0
usemtl m_40848957-2549-a738-8f54-61ce0ad6552c
f 33/121/33 37/122/33 38/123/33 34/124/33
f 36/125/34 40/126/34 39/127/34 35/128/34
f 35/129/35 39/130/35 37/131/35 33/132/35
f 34/133/36 38/134/36 40/135/36 36/136/36
f 37/137/37 41/138/37 42/139/37 38/140/37
f 40/141/38 44/142/38 43/143/38 39/144/38
f 39/145/39 43/146/39 41/147/39 37/148/39
f 38/149/40 42/150/40 44/151/40 40/152/40
f 41/153/41 45/154/41 46/155/41 42/156/41
f 44/157/42 48/158/42 47/159/42 43/160/42
f 43/161/43 47/162/43 45/163/43 41/164/43
f 42/165/44 46/166/44 48/167/44 44/168/44
f 45/169/45 49/170/45 50/171/45 46/172/45
f 48/173/46 52/174/46 51/175/46 47/176/46
f 47/177/47 51/178/47 49/179/47 45/180/47
f 46/181/48 50/182/48 52/183/48 48/184/48
f 49/185/49 53/186/49 54/187/49 50/188/49
f 52/189/50 56/190/50 55/191/50 51/192/50
f 51/193/51 55/194/51 53/195/51 49/196/51
f 50/197/52 54/198/52 56/199/52 52/200/52
f 53/201/53 33/202/53 34/203/53 54/204/53
f 56/205/54 36/206/54 35/207/54 55/208/54
f 55/209/55 35/210/55 33/211/55 53/212/55
f 54/213/56 34/214/56 36/215/56 56/216/56