# Made in Blockbench 5.1.4
mtllib grave_cross.mtl

o base
v 0.3375 0.375 0.39375
v 0.3375 0.375 -0.39375
v 0.375 0 0.4375
v 0.375 0 -0.4375
v -0.3375 0.375 0.39375
v -0.3375 0.375 -0.39375
v -0.375 0 0.4375
v -0.375 0 -0.4375
vt 0.625 0.78125
vt 0.34375 0.78125
vt 0.328125 0.6875
vt 0.640625 0.6875
vt 0.609375 0.578125
vt 0.59375 0.671875
vt 0.3125 0.671875
vt 0.296875 0.578125
vt 0 0.390625
vt 0.28125 0.390625
vt 0.28125 0.671875
vt 0 0.671875
vt 0.3125 0.6875
vt 0.3125 1
vt 0 1
vt 0 0.6875
vt 0.640625 0.90625
vt 0.625 1
vt 0.34375 1
vt 0.328125 0.90625
vt 0.625 0.890625
vt 0.34375 0.890625
vt 0.328125 0.796875
vt 0.640625 0.796875
vn 0.9950371902099893 0.09950371902099887 0
vn -0.9950371902099893 0.09950371902099887 0
vn 0 1 0
vn 0 -1 0
vn 0 0.11588069956017838 0.9932631390872431
vn 0 0.11588069956017838 -0.9932631390872431
usemtl m_ddaf752c-bb54-61d5-c681-3d66f4859d53
f 2/1/1 1/2/1 3/3/1 4/4/1
f 7/5/2 5/6/2 6/7/2 8/8/2
f 5/9/3 1/10/3 2/11/3 6/12/3
f 4/13/4 3/14/4 7/15/4 8/16/4
f 3/17/5 1/18/5 5/19/5 7/20/5
f 6/21/6 2/22/6 4/23/6 8/24/6
o cross
v 0.125 2.125 0.208333125
v 0.125 2.125 -0.208333125
v 0.125 0.375 0.208333125
v 0.125 0.375 -0.208333125
v -0.125 2.125 0.208333125
v -0.125 2.125 -0.208333125
v -0.125 0.375 0.208333125
v -0.125 0.375 -0.208333125
v 0.125 1.75 0.625
v -0.125 1.75 0.625
v -0.125 1.75 -0.625
v 0.125 1.75 -0.625
v 0.125 1.375 0.625
v -0.125 1.375 0.625
v -0.125 1.375 -0.625
v 0.125 1.375 -0.625
v 0.125 1.75 0.208333125
v 0.125 1.75 -0.208333125
v -0.125 1.75 -0.208333125
v -0.125 1.75 0.208333125
v 0.125 1.375 -0.208333125
v 0.125 1.375 0.208333125
v -0.125 1.375 0.208333125
v -0.125 1.375 -0.208333125
vt 0 1
vt 0 0.7916671875
vt 0 0.8958328125
vt 0 0.6875
vt 0 0.7916671875
vt 0 1
vt 0.40625 0.890625
vt 0.46875 0.890625
vt 0.46875 1
vt 0.40625 1
vt 0.46875 0.765625
vt 0.46875 0.875
vt 0.40625 0.875
vt 0.40625 0.765625
vt 0.515625 0.640625
vt 0.515625 0.75
vt 0.453125 0.75
vt 0.453125 0.640625
vt 0.453125 0.625
vt 0.453125 0.515625
vt 0.515625 0.515625
vt 0.515625 0.625
vt 0.078125 0.515625
vt 0.078125 0.421875
vt 0.140625 0.421875
vt 0.140625 0.515625
vt 0 1
vt 0 0.90625
vt 0.3125 0.90625
vt 0.3125 1
vt 0.484375 0.875
vt 0.484375 0.78125
vt 0.546875 0.78125
vt 0.546875 0.875
vt 0 0.890625
vt 0 0.796875
vt 0.3125 0.796875
vt 0.3125 0.890625
vt 0 0.515625
vt 0 0.40625
vt 0.0625 0.40625
vt 0.0625 0.515625
vt 0 1
vt 0 0.7916671875
vt 0 0.8958328125
vt 0.546875 0.890625
vt 0.546875 1
vt 0.484375 1
vt 0.484375 0.890625
vt 0 0.6875
vt 0 0.7916671875
vt 0 1
vt 0.328125 0.734375
vt 0.328125 0.640625
vt 0.4375 0.640625
vt 0.4375 0.734375
vt 0.15625 0.515625
vt 0.15625 0.421875
vt 0.21875 0.421875
vt 0.21875 0.515625
vt 0.328125 0.625
vt 0.328125 0.53125
vt 0.4375 0.53125
vt 0.4375 0.625
vt 0.234375 0.515625
vt 0.234375 0.421875
vt 0.296875 0.421875
vt 0.296875 0.515625
vt 0 1
vt 0 0.7916671875
vt 0 0.6875
vt 0 0.8958328125
vt 0 0.7916671875
vt 0 1
vt 0.109375 0.53125
vt 0.109375 0.78125
vt 0 0.78125
vt 0 0.53125
vt 0.3125 0.53125
vt 0.3125 0.78125
vt 0.25 0.78125
vt 0.25 0.53125
vt 0.234375 0.53125
vt 0.234375 0.78125
vt 0.125 0.78125
vt 0.125 0.53125
vt 0.390625 0.75
vt 0.390625 1
vt 0.328125 1
vt 0.328125 0.75
vt 0 1
vt 0 0.7916671875
vt 0 0.6875
vt 0 0.8958328125
vt 0 0.7916671875
vt 0 1
vn 0 0 0
vn 0 0 0
vn 0 1 0
vn 0 -1 0
vn 0 1 0
vn 0 1 0
vn 0 0 1
vn -1 0 0
vn 0 0 -1
vn 1 0 0
vn 0 -1 0
vn 0 0 0
vn 0 -1 0
vn 0 0 0
vn 1 0 0
vn 0 0 -1
vn -1 0 0
vn 0 0 1
vn 0 0 0
vn 0 0 0
vn 1 0 0
vn 0 0 1
vn -1 0 0
vn 0 0 -1
vn 0 0 0
vn 0 0 0
usemtl m_fdd8c468-50d3-3758-9f0f-36d0280d10de
f 20/25/7 25/26/7 26/27/7
f 18/28/8 28/29/8 19/30/8
f 13/31/9 9/32/9 10/33/9 14/34/9
f 12/35/10 11/36/10 15/37/10 16/38/10
f 17/39/11 25/40/11 28/41/11 18/42/11
f 19/43/12 27/44/12 26/45/12 20/46/12
f 18/47/13 22/48/13 21/49/13 17/50/13
f 19/51/14 23/52/14 22/53/14 18/54/14
f 20/55/15 24/56/15 23/57/15 19/58/15
f 17/59/16 21/60/16 24/61/16 20/62/16
f 22/63/17 31/64/17 30/65/17 21/66/17
f 23/67/18 31/68/18 32/69/18
f 24/70/19 29/71/19 32/72/19 23/73/19
f 21/74/20 30/75/20 24/76/20
f 9/77/21 25/78/21 26/79/21 10/80/21
f 10/81/22 26/82/22 27/83/22 14/84/22
f 14/85/23 27/86/23 28/87/23 13/88/23
f 13/89/24 28/90/24 25/91/24 9/92/24
f 20/93/25 25/94/25 17/95/25
f 27/96/26 28/97/26 19/98/26
f 12/99/27 29/100/27 30/101/27 11/102/27
f 11/103/28 30/104/28 31/105/28 15/106/28
f 15/107/29 31/108/29 32/109/29 16/110/29
f 16/111/30 32/112/30 29/113/30 12/114/30
f 23/115/31 31/116/31 22/117/31
f 29/118/32 30/119/32 24/120/32