# Made in Blockbench 5.1.4
mtllib grave_gate.mtl

o plane
v 0.015625 0 1.3877787807814457e-16
v 0.015625 1.25 -1.3877787807814457e-16
v -0.453125 0 1.3877787807814457e-16
v -0.453125 1.25 -1.3877787807814457e-16
vt 0.49609375 -0.0078125
vt 0.49609375 1
vt 0 1
vt 0 -0.0078125
vn 0 2.220446049250313e-16 1
usemtl m_cb91ddf2-af7c-1277-bb36-ca88a3d88f9f
f 1/1/1 2/2/1 4/3/1 3/4/1
o plane
v 0.484375 0 1.3877787807814457e-16
v 0.484375 1.25 -1.3877787807814457e-16
v 0.015625 0 1.3877787807814457e-16
v 0.015625 1.25 -1.3877787807814457e-16
vt 1 0
vt 1 1.0078125
vt 0.50390625 1.0078125
vt 0.50390625 0
vn 0 2.220446049250313e-16 1
usemtl m_cb91ddf2-af7c-1277-bb36-ca88a3d88f9f
f 5/5/2 6/6/2 8/7/2 7/8/2