# Made in Blockbench 5.1.4
mtllib grave_block.mtl

o grave
v 0.09375 0.9375 0.34375
v 0.09375 0.9375 -0.34375
v 0.09375 0 0.34375
v 0.09375 0 -0.34375
v -0.09375 0.9375 0.34375
v -0.09375 0.9375 -0.34375
v -0.09375 0 0.34375
v -0.09375 0 -0.34375
v 0.09375 1.0625 0
v -0.09375 1.0625 0
v -0.09375 0 0
v 0.09375 0 0
vt 0.171875 0.96875
vt 0.0859375 1
vt 0.0859375 0.734375
vt 0.171875 0.734375
vt 0.1875 0.734375
vt 0.2734375 0.734375
vt 0.2734375 1
vt 0.1875 0.96875
vt 0.234375 0.625
vt 0.234375 0.71875
vt 0.1875 0.71875
vt 0.1875 0.625
vt 0.171875 0.546875
vt 0.171875 0.6328125
vt 0.125 0.6328125
vt 0.125 0.546875
vt 0.046875 0.484375
vt 0.046875 0.71875
vt 0 0.71875
vt 0 0.484375
vt 0.109375 0.71875
vt 0.0625 0.71875
vt 0.0625 0.484375
vt 0.109375 0.484375
vt 0.296875 0.625
vt 0.296875 0.71875
vt 0.25 0.71875
vt 0.25 0.625
vt 0.359375 0.96875
vt 0.2734375 1
vt 0.2734375 0.734375
vt 0.359375 0.734375
vt 0.125 0.71875
vt 0.125 0.6328125
vt 0.171875 0.6328125
vt 0.171875 0.71875
vt 0 0.734375
vt 0.0859375 0.734375
vt 0.0859375 1
vt 0 0.96875
vn 1 0 0
vn -1 0 0
vn 0 0.9397934234884372 -0.34174306308670443
vn 0 -1 0
vn 0 0 1
vn 0 0 -1
vn 0 0.9397934234884372 0.34174306308670443
vn -1 0 0
vn 0 -1 0
vn 1 0 0
usemtl m_b9f7fab4-362e-b4e9-c91e-14cee981ac3b
f 2/1/1 9/2/1 12/3/1 4/4/1
f 8/5/2 11/6/2 10/7/2 6/8/2
f 6/9/3 10/10/3 9/11/3 2/12/3
f 4/13/4 12/14/4 11/15/4 8/16/4
f 3/17/5 1/18/5 5/19/5 7/20/5
f 6/21/6 2/22/6 4/23/6 8/24/6
f 1/25/7 9/26/7 10/27/7 5/28/7
f 5/29/8 10/30/8 11/31/8 7/32/8
f 7/33/9 11/34/9 12/35/9 3/36/9
f 3/37/10 12/38/10 9/39/10 1/40/10