# Made in Blockbench 5.1.4
mtllib log.mtl

o log
v 0.10825317547305513 0.1875 1
v 0.10825317547305513 0.18750000000000044 -0.9375
v 0.21650635094610937 1.3257190484061475e-17 1
v 0.21650635094610937 4.4346861252630963e-16 -0.9375
v 0.10825317547305513 -0.1875 1
v 0.10825317547305513 -0.18749999999999956 -0.9375
v -0.10825317547305513 -0.1875 1
v -0.10825317547305513 -0.18749999999999956 -0.9375
v -0.21650635094610937 -3.977157145218403e-17 1
v -0.21650635094610937 3.9043985059006413e-16 -0.9375
v -0.10825317547305513 0.18749999999999992 1
v -0.10825317547305513 0.18750000000000033 -0.9375
v 0 0 1
v 0 4.3021142204224816e-16 -0.9375
vt 0 0
vt 0.16026552763819096 0
vt 0.16026552763819096 0.997257053291536
vt 0 0.997257053291536
vt 0 0
vt 0.16026552763819096 0
vt 0.16026552763819096 0.997257053291536
vt 0 0.997257053291536
vt 0 0
vt 0.16026552763819096 0
vt 0.16026552763819096 0.997257053291536
vt 0 0.997257053291536
vt 0 0
vt 0.16026552763819096 0
vt 0.16026552763819096 0.997257053291536
vt 0 0.997257053291536
vt 0 0
vt 0.16026552763819096 0
vt 0.16026552763819096 0.997257053291536
vt 0 0.997257053291536
vt 0 0
vt 0.16026552763819096 0
vt 0.16026552763819096 0.997257053291536
vt 0 0.997257053291536
vt 0.7401354917174882 0.5031876109082483
vt 0.6807077644828878 0.5275024252155225
vt 0.71877068888463 0.3966693719840043
vt 0.6347840714008879 0.5796753525130649
vt 0.5967205302501247 0.7105053308264535
vt 0.5753557274172667 0.6039870919022094
vt 0.7074858986430184 0.5350531738783182
vt 0.7288513182248973 0.6415744877206917
vt 0.6694229742412762 0.6658862271098362
vt 0.73762442498424 0.5397902684879172
vt 0.7970521522188402 0.515475454180643
vt 0.7589892278170979 0.6463085074121614
vt 0.6463233556744368 0.3675718064442015
vt 0.7247895787062232 0.2923038823513129
vt 0.7043088510017215 0.3992436533241397
vt 0.7804808041256898 0.5194322223866987
vt 0.7591153845438108 0.412910908544325
vt 0.818543728527432 0.38859916915518045
vt 0.6458020777888196 0.4492669836440787
vt 0.6787439761014905 0.30695011875785194
vt 0.7037296069051097 0.4069365065322824
vt 0.8438788106986744 0.5871246416772762
vt 0.7871479714699563 0.5185282683314059
vt 0.8439830108148303 0.46651175449195625
vt 0.7664460961321722 0.45565355737031543
vt 0.7253186512517928 0.4307770266360098
vt 0.7549054747420499 0.28212207646046206
vt 0.7006942904845397 0.6434817830647026
vt 0.6626307493337765 0.7743117613780914
vt 0.6412659465009185 0.6677935224538473
vt 0.7600647568716647 0.6326154348067441
vt 0.8106245575995185 0.7357547765956263
vt 0.7505928000520787 0.74876871439893
vt 0.6520850444826778 0.41040554266241136
vt 0.6911938118790422 0.45737479262346215
vt 0.6520850444826778 0.585553373940341
vn 0.8660254037844398 0.49999999999999795 1.110223024625152e-16
vn 0.8660254037844398 -0.49999999999999795 -1.110223024625152e-16
vn 0 -1 -2.220446049250313e-16
vn -0.8660254037844398 -0.499999999999998 -1.1102230246251521e-16
vn -0.8660254037844398 0.49999999999999806 1.1102230246251522e-16
vn -3.8459253727671173e-16 1 2.220446049250313e-16
vn 0 -2.220446049250313e-16 1
vn 0 -2.220446049250313e-16 1
vn 0 -2.220446049250313e-16 1
vn 0 -2.220446049250313e-16 1
vn 0 -2.220446049250313e-16 1
vn 0 -2.220446049250313e-16 1
vn 0 2.220446049250313e-16 -1
vn 0 2.220446049250313e-16 -1
vn 0 2.220446049250313e-16 -1
vn 0 2.220446049250313e-16 -1
vn 0 2.220446049250313e-16 -1
vn 0 2.220446049250313e-16 -1
usemtl m_0d3a4c63-ef26-d036-724c-2c11364ad7d0
f 1/1/1 3/2/1 4/3/1 2/4/1
f 3/5/2 5/6/2 6/7/2 4/8/2
f 5/9/3 7/10/3 8/11/3 6/12/3
f 7/13/4 9/14/4 10/15/4 8/16/4
f 9/17/5 11/18/5 12/19/5 10/20/5
f 11/21/6 1/22/6 2/23/6 12/24/6
f 3/25/7 1/26/7 13/27/7
f 5/28/8 3/29/8 13/30/8
f 7/31/9 5/32/9 13/33/9
f 9/34/10 7/35/10 13/36/10
f 11/37/11 9/38/11 13/39/11
f 1/40/12 11/41/12 13/42/12
f 2/43/13 4/44/13 14/45/13
f 4/46/14 6/47/14 14/48/14
f 6/49/15 8/50/15 14/51/15
f 8/52/16 10/53/16 14/54/16
f 10/55/17 12/56/17 14/57/17
f 12/58/18 2/59/18 14/60/18