# Made in Blockbench 5.1.4
mtllib small_tree.mtl

o cone
v 0 1.875 0
v 0.045753175473054825 0 0.0625
v 0.09150635094610966 0 4.419063494687112e-18
v 0.045753175473054825 0 -0.0625
v -0.045753175473054845 0 -0.0625
v -0.09150635094610966 0 -1.3257190484061336e-17
v -0.045753175473054866 0 0.06249999999999998
vt 0 0.0023622222222223765
vt 0.053005959031657356 0.0023622222222223765
vt 0.026502979515828678 1
vt 0 0.0023622222222223765
vt 0.053005959031657356 0.0023622222222223765
vt 0.026502979515828678 1
vt 0 0.0023622222222223765
vt 0.053005959031657356 0.0023622222222223765
vt 0.026502979515828678 1
vt 0 0.0023622222222223765
vt 0.053005959031657356 0.0023622222222223765
vt 0.026502979515828678 1
vt 0 0.0023622222222223765
vt 0.053005959031657356 0.0023622222222223765
vt 0.026502979515828678 1
vt 0 0.0023622222222223765
vt 0.053005959031657356 0.0023622222222223765
vt 0.026502979515828678 1
vn 0.8062733056189018 0.039348868299969676 0.5902330244995454
vn 0.8062733056189016 0.039348868299969676 -0.5902330244995453
vn 0 0.03331483023263848 -0.9994449069791544
vn -0.8062733056189018 0.03934886829996969 -0.5902330244995453
vn -0.8062733056189019 0.03934886829996968 0.590233024499545
vn -2.2736265080922074e-16 0.033314830232638475 0.9994449069791544
usemtl m_f9c5a8df-1125-fe08-07d2-76ea696413b3
f 2/1/1 3/2/1 1/3/1
f 3/4/2 4/5/2 1/6/2
f 4/7/3 5/8/3 1/9/3
f 5/10/4 6/11/4 1/12/4
f 6/13/5 7/14/5 1/15/5
f 7/16/6 2/17/6 1/18/6
o leaf
v 3.0531133177191805e-16 0.3125000000000009 1.3750000000000004
v 3.0531133177191805e-16 4.4375 1.3749999999999996
v -3.0531133177191805e-16 0.3125 -1.3749999999999996
v -3.0531133177191805e-16 4.437499999999999 -1.3750000000000004
vt 0.9958982772764561 0
vt 0.9958982772764561 1.0130331753554502
vt 0.007383100902378999 1.0130331753554502
vt 0.007383100902378999 0
vn -1 4.930380657631324e-32 2.220446049250313e-16
usemtl m_08a31c2b-a401-027a-d86c-13b8a1e39492
f 8/19/7 9/20/7 11/21/7 10/22/7
o leaf
v -1.1263340608973627 0.3125000000000009 0.7886675999826895
v -1.1263340608973627 4.437499999999999 0.7886675999826878
v 1.1263340608973627 0.3125000000000009 -0.7886675999826878
v 1.1263340608973627 4.437499999999999 -0.7886675999826895
vt 0.9958982772764561 0
vt 0.9958982772764561 1.0130331753554502
vt 0.007383100902378999 1.0130331753554502
vt 0.007383100902378999 0
vn -0.5735764363510466 -3.6377658409536177e-16 -0.8191520442889914
usemtl m_08a31c2b-a401-027a-d86c-13b8a1e39492
f 12/23/8 13/24/8 15/25/8 14/26/8
o leaf
v -1.1263340608973627 0.3125000000000009 -0.7886675999826878
v -1.1263340608973627 4.437499999999999 -0.7886675999826895
v 1.1263340608973627 0.3125000000000009 0.7886675999826895
v 1.1263340608973627 4.437499999999999 0.7886675999826878
vt 0.9958982772764561 0
vt 0.9958982772764561 1.0130331753554502
vt 0.007383100902378999 1.0130331753554502
vt 0.007383100902378999 0
vn 0.5735764363510466 -3.6377658409536177e-16 -0.8191520442889914
usemtl m_08a31c2b-a401-027a-d86c-13b8a1e39492
f 16/27/9 17/28/9 19/29/9 18/30/9
o leaf
v -1.375 0.31250000000000044 2.895780627751159e-16
v -1.375 4.4375 -6.263559325406381e-16
v 1.375 0.31250000000000044 6.263559325406381e-16
v 1.375 4.4375 -2.895780627751159e-16
vt 0.9958982772764561 0
vt 0.9958982772764561 1.0130331753554502
vt 0.007383100902378999 1.0130331753554502
vt 0.007383100902378999 0
vn 1.2246467991473532e-16 -2.220446049250313e-16 -1
usemtl m_08a31c2b-a401-027a-d86c-13b8a1e39492
f 20/31/10 21/32/10 23/33/10 22/34/10