# Made in Blockbench 5.1.4
mtllib tree.mtl

o leaf
v 3.469446951953614e-16 0.8750000000000004 1.5625000000000007
v 3.469446951953614e-16 6.5 1.5624999999999993
v -3.469446951953614e-16 0.8749999999999996 -1.5624999999999993
v -3.469446951953614e-16 6.5 -1.5625000000000007
vt 0.9958982772764561 0
vt 0.9958982772764561 1.0130331753554502
vt 0.007383100902378999 1.0130331753554502
vt 0.007383100902378999 0
vn -1 4.930380657631324e-32 2.220446049250313e-16
usemtl m_a3648181-79ae-3d0b-346c-9784ce3a10a2
f 1/1/1 2/2/1 4/3/1 3/4/1
o leaf
v -1.5625 0.875 4.331493889848766e-16
v -1.5625 6.5 -8.158515137184245e-16
v 1.5625 0.875 8.158515137184245e-16
v 1.5625 6.5 -4.331493889848766e-16
vt 0.9958982772764561 0
vt 0.9958982772764561 1.0130331753554502
vt 0.007383100902378999 1.0130331753554502
vt 0.007383100902378999 0
vn 1.2246467991473532e-16 -2.220446049250313e-16 -1
usemtl m_a3648181-79ae-3d0b-346c-9784ce3a10a2
f 5/5/2 6/6/2 8/7/2 7/8/2
o leaf
v -1.2799250692015485 0.8750000000000004 0.8962131817985111
v -1.2799250692015485 6.5 0.8962131817985086
v 1.2799250692015485 0.8750000000000004 -0.8962131817985086
v 1.2799250692015485 6.5 -0.8962131817985111
vt 0.9958982772764561 0
vt 0.9958982772764561 1.0130331753554502
vt 0.007383100902378999 1.0130331753554502
vt 0.007383100902378999 0
vn -0.5735764363510466 -3.6377658409536177e-16 -0.8191520442889914
usemtl m_a3648181-79ae-3d0b-346c-9784ce3a10a2
f 9/9/3 10/10/3 12/11/3 11/12/3
o leaf
v -1.2799250692015485 0.8750000000000004 -0.8962131817985086
v -1.2799250692015485 6.5 -0.8962131817985111
v 1.2799250692015485 0.8750000000000004 0.8962131817985111
v 1.2799250692015485 6.5 0.8962131817985086
vt 0.9958982772764561 0
vt 0.9958982772764561 1.0130331753554502
vt 0.007383100902378999 1.0130331753554502
vt 0.007383100902378999 0
vn 0.5735764363510466 -3.6377658409536177e-16 -0.8191520442889914
usemtl m_a3648181-79ae-3d0b-346c-9784ce3a10a2
f 13/13/4 14/14/4 16/15/4 15/16/4
o cone
v 0 1.875 0
v 0.108253125 0 0.1875
v 0.21650625 0 0
v 0.108253125 0 -0.1875
v -0.108253125 0 -0.1875
v -0.21650625 0 0
v -0.108253125 0 0.1875
vt 0 0.0023622222222221545
vt 0.053005959031657356 0.0023622222222221545
vt 0.026502979515828678 1
vt 0 0.0023622222222221545
vt 0.053005959031657356 0.0023622222222221545
vt 0.026502979515828678 1
vt 0 0.0023622222222221545
vt 0.053005959031657356 0.0023622222222221545
vt 0.026502979515828678 1
vt 0 0.0023622222222221545
vt 0.053005959031657356 0.0023622222222221545
vt 0.026502979515828678 1
vt 0 0.0023622222222221545
vt 0.053005959031657356 0.0023622222222221545
vt 0.026502979515828678 1
vt 0 0.0023622222222221545
vt 0.053005959031657356 0.0023622222222221545
vt 0.026502979515828678 1
vn 0.8617275878607857 0.09950368457028494 0.49751842285142467
vn 0.8617275878607857 0.09950368457028494 -0.49751842285142467
vn 0 0.09950371902099894 -0.9950371902099893
vn -0.8617275878607857 0.09950368457028494 -0.49751842285142467
vn -0.8617275878607857 0.09950368457028494 0.49751842285142467
vn 0 0.09950371902099894 0.9950371902099893
usemtl m_52f68350-2ca5-487c-f8e3-5fbd9c5bee98
f 18/17/5 19/18/5 17/19/5
f 19/20/6 20/21/6 17/22/6
f 20/23/7 21/24/7 17/25/7
f 21/26/8 22/27/8 17/28/8
f 22/29/9 23/30/9 17/31/9
f 23/32/10 18/33/10 17/34/10